PathFileType	4	(X/Y/Z)	C:/Users/beibeiliu/ov580/test_trc/User3\sequence.18_training_dense_right.trc
DataRate	CameraRate	NumFrames	NumMarkers	Units	OrigDataRate	OrigDataStartFrame	OrigNumFrames
120	120	18	19	mm	120	1	261
Frame#	Time	ThumbCMC			ThumbMCP			ThumbIP			ThumbTip			IndexMCP			IndexPIP			IndexTip			MiddleMCP			MiddlePIP			MiddleTip			RingMCP			RingPIP			RingTip			PinkyMCP			PinkyPIP			PinkyTip			BackHand1			BackHand2			BackHand3	
		X0	Y0	Z0	X1	Y1	Z1	X2	Y2	Z2	X3	Y3	Z3	X4	Y4	Z4	X5	Y5	Z5	X6	Y6	Z6	X7	Y7	Z7	X8	Y8	Z8	X9	Y9	Z9	X10	Y10	Z10	X11	Y11	Z11	X12	Y12	Z12	X13	Y13	Z13	X14	Y14	Z14	X15	Y15	Z15	X16	Y16	Z16	X17	Y17	Z17	X18	Y18	Z18	
0	0	114.037	-43.0125	36.7032	88.9747	-55.1665	15.6474	76.0845	-66.2256	-10.1606	70.215	-76.297	-29.676	113.649	-31.9408	-41.7954	104.193	-41.0896	-69.8434	94.7703	-49.3284	-88.8742	138.121	-34.7042	-52.1029	127.721	-44.882	-77.9528	122.686	-64.7074	-104.665	155.084	-41.3037	-47.2687	151.741	-48.8583	-72.888	150.326	-62.7383	-97.9169	177.466	-46.8386	-32.9862	184.268	-48.6214	-54.0013	191.815	-49.9403	-73.1806	165.082	-25.5048	3.01211	171.127	-20.5403	33.3907	136.458	-18.4939	23.4547	
1	0.00833333	110.457	-43.504	31.6186	92.5197	-55.4495	15.6379	77.1995	-65.8866	-12.5735	67.3393	-77.1518	-28.4735	112.879	-32.8517	-42.1357	101.547	-39.3701	-70.0487	97.5843	-51.6156	-93.1025	134.031	-34.3572	-50.9378	126.049	-46.7593	-81.9377	121.864	-65.9396	-106.858	151.802	-40.5594	-49.4771	156.128	-48.426	-71.2161	148.811	-62.5441	-97.7082	176.304	-47.3025	-32.8582	184.268	-48.6126	-55.5637	187.632	-49.9574	-77.2047	163.697	-26.0577	2.76277	170.044	-21.7974	32.5802	134.286	-18.033	19.9462	
2	0.0166667	110.119	-43.7755	36.9911	92.6809	-55.5373	12.9254	76.2028	-65.7015	-12.1626	71.0048	-75.5127	-30.8694	113.341	-33.0086	-42.6727	101.599	-38.3843	-66.4438	98.9011	-49.8325	-90.5905	133.55	-35.3901	-55.9176	126.341	-46.5161	-81.5826	122.738	-67.4199	-107.76	155.137	-40.6585	-48.4973	152.413	-47.5558	-70.6526	150.133	-62.8461	-96.35	176.712	-45.7235	-34.1225	184.256	-49.5804	-53.0156	188.499	-49.6142	-73.1162	164.457	-25.9442	1.6062	172.633	-21.441	29.4863	136.49	-18.0502	21.1421	
3	0.025	108.814	-43.3618	34.341	90.5572	-55.2587	15.7422	77.3473	-65.233	-13.6992	69.4799	-76.3775	-31.8413	111.575	-32.012	-40.3589	101.278	-39.6639	-70.0712	99.8857	-50.0421	-92.0042	138.111	-34.7797	-54.1294	130.538	-47.1738	-82.5713	125.973	-66.7195	-105.816	153.539	-39.1693	-49.6362	153.315	-48.0762	-74.4127	149.042	-62.6981	-96.2361	176.926	-45.4487	-32.5462	183.221	-48.8709	-50.7044	190.537	-49.5769	-76.4491	161.865	-23.1875	2.24643	171.3	-22.5643	32.9634	132.152	-18.4084	18.558	
4	0.0333333	107.674	-42.7182	33.0964	91.8648	-55.1113	14.3638	77.1886	-64.9331	-12.4871	70.6208	-76.0282	-32.8383	112.794	-32.0714	-44.3277	101.615	-37.665	-67.2791	100.309	-49.6358	-91.071	134.266	-33.1523	-50.1819	128.709	-46.8064	-81.9193	123.425	-63.7674	-104.886	154.022	-39.8734	-44.4728	150.614	-48.183	-74.2109	149.37	-62.0935	-98.0212	178.592	-46.6954	-30.0373	184.127	-48.0103	-55.2988	190.452	-51.0658	-76.726	162.969	-24.0999	5.53588	174.173	-20.9637	32.5793	137.979	-18.9461	21.7056	
5	0.0416667	108.152	-43.9569	31.5222	93.846	-55.6737	13.0141	79.513	-65.6799	-9.07362	71.5501	-75.5175	-30.0978	110.065	-33.2384	-42.7547	105.578	-40.0903	-70.3306	94.1458	-50.5586	-93.496	136.755	-34.179	-51.1171	131.926	-45.0818	-79.8042	123.558	-62.7256	-103.966	152.523	-40.0043	-48.1336	154.513	-47.1999	-72.1589	148.43	-60.9174	-94.1879	180.124	-46.4965	-33.7539	182.524	-48.315	-52.0328	192.726	-50.38	-77.8831	166.534	-25.8771	1.98161	170.679	-22.4165	29.9411	136.813	-19.6505	17.494	
6	0.05	110.461	-44.8079	31.939	90.0311	-55.0761	14.3476	74.6316	-65.1756	-12.078	68.1997	-76.2946	-30.3118	111.218	-33.7304	-43.459	100.311	-40.1262	-70.1336	99.7094	-50.7692	-93.2166	133.713	-33.5674	-52.2039	129.436	-44.8599	-79.7641	124.004	-63.6844	-106.029	156.517	-39.8246	-48.8784	155.431	-47.5023	-72.6074	151.976	-60.9033	-95.2275	177.346	-46.6354	-31.3037	186.702	-49.942	-54.3619	192.794	-51.5391	-78.3354	163.147	-24.0743	4.92972	168.332	-22.1542	32.2964	134.282	-20.1485	18.2985	
7	0.0583333	109.857	-44.6291	36.2414	90.57	-54.668	13.6821	76.5436	-64.6888	-11.6309	69.3725	-74.9665	-32.9761	109.536	-32.908	-43.7489	103.591	-41.5574	-72.1734	97.2888	-51.5144	-95.5923	135.824	-34.9718	-54.1708	129.77	-45.6248	-81.2517	126.69	-65.6359	-110.073	157.335	-41.179	-49.5806	156.69	-48.3722	-73.8355	149.83	-59.59	-95.2769	178.038	-46.7344	-29.9297	183.972	-49.1818	-50.8833	194.201	-50.1704	-75.0327	162.243	-23.2322	0.434404	169.523	-21.1695	33.7384	132.664	-18.891	21.2585	
8	0.0666667	112.081	-44.7799	30.6526	90.9318	-55.1963	13.7608	79.0218	-64.7238	-10.2385	70.2919	-75.765	-30.8961	112.146	-33.8973	-45.2817	103.288	-39.4184	-71.0368	100.199	-48.8889	-92.1059	137.442	-34.611	-53.1673	131.402	-46.5549	-83.3695	125.852	-60.8877	-105.337	155.479	-39.6173	-45.2103	154.861	-46.706	-70.5806	152.505	-59.7517	-98.4366	180.029	-46.7923	-31.5385	183.846	-49.8483	-53.4313	195.712	-52.4647	-71.8429	167.082	-24.0288	1.45863	172.529	-22.3176	30.2157	136.555	-20.362	21.3278	
9	0.075	110.151	-44.2828	35.3528	90.7939	-56.3851	12.743	77.6962	-65.35	-10.6181	70.2797	-75.8449	-33.2354	114.932	-33.7487	-45.7141	103.085	-39.0711	-67.645	99.7825	-50.1605	-94.6881	134.935	-34.1282	-55.5243	132.397	-45.3266	-83.3781	126.595	-58.0956	-107.234	157.488	-39.8179	-45.4025	155.361	-45.8477	-70.4083	153.389	-57.1181	-96.8548	182.95	-47.7568	-31.3957	186.344	-50.1052	-52.2881	192.966	-50.0036	-73.0445	162.473	-26.6007	4.62854	172.201	-23.6634	29.2218	138.713	-19.2173	21.4068	
10	0.0833333	112.82	-44.9435	31.2315	89.3275	-56.2277	10.2237	75.7909	-67.6063	-12.9696	72.1977	-77.8283	-34.9735	114.004	-33.6536	-42.2859	103.763	-40.0682	-72.1286	104.593	-47.4457	-93.7275	138.918	-34.5297	-55.003	137.473	-41.8379	-80.7921	131.743	-56.0642	-108.721	159.802	-39.9005	-49.4179	158.577	-44.7386	-71.5884	156.714	-54.5548	-97.1991	184.452	-48.3801	-31.7966	187.377	-49.9541	-52.2383	196.107	-49.2989	-75.8592	163.4	-26.1622	5.89799	171.586	-21.6814	32.9777	137.706	-22.0848	21.5055	
11	0.0916667	112.524	-46.8945	34.8575	95.9895	-57.2399	10.8759	78.863	-68.1029	-17.3535	71.5914	-78.6776	-37.5288	113.13	-34.7459	-45.2808	107.707	-39.8755	-72.5503	103.767	-48.5177	-96.7674	137.888	-33.4902	-52.0571	137.522	-40.8095	-82.7474	131.032	-52.6852	-110.466	160.442	-38.6505	-48.8754	161.382	-43.9694	-71.6701	157.868	-53.4915	-99.5375	181.249	-45.8191	-35.5365	190.845	-48.2021	-55.0383	199.928	-49.2927	-74.2103	165.568	-25.8971	0.15634	171.001	-22.484	31.1263	133.586	-22.2454	17.3115	
12	0.1	111.146	-46.9602	33.1789	96.3477	-58.1605	9.53444	82.089	-68.7932	-13.321	74.1061	-78.0713	-34.1414	114.111	-33.844	-48.1062	110.326	-39.9731	-73.007	103.744	-46.8199	-93.2892	139.169	-33.6192	-57.503	141.383	-43.0368	-85.1648	136.768	-54.0533	-110.988	160.868	-39.193	-50.274	164.551	-45.1455	-75.2249	159.093	-52.7025	-99.5452	185.737	-45.1179	-34.28	191.027	-47.4811	-53.6041	199.467	-48.448	-74.521	165.169	-23.8148	1.41697	171.571	-23.4046	30.2443	135.549	-20.1527	20.3182	
13	0.108333	116.774	-47.6813	28.9595	97.4237	-59.7807	8.03734	85.2858	-68.6498	-16.0494	76.4678	-79.5402	-33.8009	120.855	-35.3933	-46.2966	114.557	-40.2611	-73.7499	108.156	-48.928	-99.774	147.022	-34.5711	-54.002	143.983	-42.8334	-81.8965	140.484	-56.8776	-113.597	166.022	-40.4389	-51.7695	161.404	-45.7243	-72.9629	164.122	-54.5951	-96.4358	189.189	-46.1822	-30.5982	196.108	-48.1679	-54.4629	201.055	-47.8661	-71.6955	167.189	-25.2586	4.32039	173.522	-23.2381	28.9533	136.799	-20.5177	19.9141	
14	0.116667	116.403	-47.8777	28.2326	96.1597	-60.3641	9.35577	86.1217	-69.6372	-16.7943	78.0488	-80.085	-40.5186	120.549	-34.3643	-50.709	117.371	-42.2017	-76.8167	110.838	-50.0388	-97.8889	144.779	-34.871	-56.129	146.975	-43.4715	-81.9104	142.092	-60.0315	-112.3	168.969	-40.2234	-50.5714	166.798	-47.326	-77.2127	164.656	-59.9298	-100.911	190.005	-45.6465	-31.3367	200.821	-46.6858	-50.1866	207.357	-46.759	-74.778	172.354	-25.2497	2.41274	173.441	-21.9586	31.0562	139.199	-22.348	15.7351	
15	0.125	115.767	-46.8114	27.2799	99.7104	-60.1725	7.26991	86.3733	-70.2455	-17.021	81.1938	-80.4786	-37.4934	122.34	-34.5194	-50.4947	117.016	-43.9853	-77.4118	112.679	-53.6624	-98.7154	148.019	-35.874	-58.7346	144.351	-47.8181	-85.9636	141.922	-66.266	-109.43	165.878	-39.9217	-51.5504	171.827	-48.3803	-73.9746	168.529	-67.2109	-98.2676	192.707	-44.8004	-31.8576	202.005	-46.9777	-50.9809	209.265	-46.9686	-73.2814	175.435	-23.7586	3.39511	178.767	-21.4845	28.7833	141.585	-22.0108	18.9845	
16	0.133333	120.519	-47.3094	27.8376	99.3676	-59.4683	5.97421	90.3752	-68.972	-21.6514	82.7813	-80.0226	-40.882	124.656	-34.4795	-51.5264	118.261	-45.0814	-76.5822	119.464	-62.2072	-99.4288	148.928	-33.825	-55.4177	146.502	-49.2597	-83.1939	148.356	-77.0775	-102.137	168.488	-39.0496	-46.7058	170.158	-53.2634	-75.9867	166.71	-78.4075	-92.9027	194.337	-44.2717	-28.9361	202.186	-46.5477	-53.9729	210.69	-47.1078	-74.8349	174.703	-22.7831	4.77482	179.727	-21.0696	33.2181	143.902	-21.9021	20.2862	
17	0.141667	119.088	-44.9601	27.8445	104.672	-57.6298	3.777	89.2122	-67.2246	-17.2311	83.5333	-76.1092	-37.1223	129.948	-33.4397	-50.8282	124.794	-48.2377	-76.3882	123.032	-72.8722	-89.0502	153.114	-35.93	-57.0938	149.787	-58.3092	-81.5705	144.565	-92.9474	-84.2322	169.474	-38.8766	-48.9498	173.642	-61.4225	-73.042	165.082	-88.5437	-74.9897	194.362	-41.9125	-32.102	204.23	-45.2562	-53.2087	215.449	-46.3792	-71.0549	177.696	-21.5288	5.6629	180.989	-20.1306	36.4626	142.555	-20.1721	21.5103	
